<svg width="24" height="24" viewBox="0 0 24 24" fill="none" xmlns="http://www.w3.org/2000/svg">
<path fill-rule="evenodd" clip-rule="evenodd" d="M7.5 4C9.433 4 11 5.567 11 7.5V11H7.5C5.567 11 4 9.433 4 7.5C4 5.567 5.567 4 7.5 4ZM7.5 20C9.433 20 11 18.433 11 16.5V13H7.5C5.567 13 4 14.567 4 16.5C4 18.433 5.567 20 7.5 20ZM13 7.5C13 5.567 14.567 4 16.5 4C18.433 4 20 5.567 20 7.5C20 9.433 18.433 11 16.5 11H13V7.5ZM16.5 20C14.567 20 13 18.433 13 16.5V13H16.5C18.433 13 20 14.567 20 16.5C20 18.433 18.433 20 16.5 20Z" fill="#212121"/>
</svg>
