<svg width="32" height="32" viewBox="0 0 32 32" fill="none" xmlns="http://www.w3.org/2000/svg">
<path d="M20.3817 15.9212C20.3817 21.5495 15.8191 26.1121 10.1909 26.1121C4.56261 26.1121 0 21.5495 0 15.9212C0 10.293 4.56261 5.73035 10.1909 5.73035C15.8191 5.73035 20.3817 10.293 20.3817 15.9212Z" fill="#FFC600"/>
<path d="M10.5848 17.4155C9.80343 16.634 9.80343 15.3671 10.5848 14.5857L19.5845 5.58606C20.3659 4.80465 21.6328 4.80465 22.4142 5.58606L31.4139 14.5857C32.1953 15.3671 32.1953 16.634 31.4139 17.4155L22.4142 26.4151C21.6328 27.1965 20.3659 27.1965 19.5845 26.4151L10.5848 17.4155Z" fill="#FF9015"/>
</svg>
